<?xml version="1.0" encoding="UTF-8"?>
<svg xmlns="http://www.w3.org/2000/svg" viewBox="0 0 800 200" width="100%" height="200">
  <style>
    .process-box { fill: #3c8dbc; stroke: #2c6da0; stroke-width: 2; }
    .process-text { fill: white; font-family: Arial; font-size: 14px; text-anchor: middle; }
    .process-arrow { fill: #2c6da0; }
  </style>
  <!-- 数据获取框 -->
  <rect class="process-box" x="50" y="75" width="120" height="50" rx="10"/>
  <text class="process-text" x="110" y="105">数据获取</text>
  <!-- 箭头1 -->
  <polygon class="process-arrow" points="180,100 200,90 200,110"/>
  <line x1="170" y1="100" x2="200" y2="100" stroke="#2c6da0" stroke-width="2"/>
  
  <!-- 数据清洗框 -->
  <rect class="process-box" x="210" y="75" width="120" height="50" rx="10"/>
  <text class="process-text" x="270" y="105">数据清洗</text>
  <!-- 箭头2 -->
  <polygon class="process-arrow" points="340,100 360,90 360,110"/>
  <line x1="330" y1="100" x2="360" y2="100" stroke="#2c6da0" stroke-width="2"/>
  
  <!-- 数据转换框 -->
  <rect class="process-box" x="370" y="75" width="120" height="50" rx="10"/>
  <text class="process-text" x="430" y="105">数据转换</text>
  <!-- 箭头3 -->
  <polygon class="process-arrow" points="500,100 520,90 520,110"/>
  <line x1="490" y1="100" x2="520" y2="100" stroke="#2c6da0" stroke-width="2"/>
  
  <!-- 数据可视化框 -->
  <rect class="process-box" x="530" y="75" width="120" height="50" rx="10"/>
  <text class="process-text" x="590" y="105">数据可视化</text>
  <!-- 箭头4 -->
  <polygon class="process-arrow" points="660,100 680,90 680,110"/>
  <line x1="650" y1="100" x2="680" y2="100" stroke="#2c6da0" stroke-width="2"/>
  
  <!-- 结果解释框 -->
  <rect class="process-box" x="690" y="75" width="120" height="50" rx="10"/>
  <text class="process-text" x="750" y="105">结果解释</text>
</svg> 